<svg class="svg-icon icon-logo" xmlns="http://www.w3.org/2000/svg" width="667" height="418" viewBox="0 0 666.5 418.1"><path d="M612.9 137.7c2.7 1.5 3.4 4.2 3.5 6.8.4 5.9 1.1 11.8 1.2 17.7.1 5.8 2.1 11.2 6.9 15.3 7.3 6.2 17.6 2 23.7-2.3 9.4-6.7 13-16.8 14-27.5 1.1-12.3.4-24.7-4.4-36.7-5.8-14.6-16.6-23.8-30.6-29.5-14.5-5.9-29.8-8.1-45.5-9.2-11.7-.9-23.4-1.7-35-1.7-13.9-.1-27.7 1.5-41.5 3.7-8.1 1.3-16.3 1.9-24.5 2-5.8.1-11.4 1.4-17.3 1.2-24.9-1-49.7-2.9-73.2-12-15.6-6-29.9-14.2-43.3-24-2.1-1.5-4.5-2.7-6.3-4.5-2.1-2-4.6-5.2-6.8-4.9-2.4.4-4.3 3.8-6.5 5.9-16.4 16-36.1 25.5-58.4 30.6-23.2 5.2-46.6 4.1-70 3.6-14.3-.3-28.5-3.8-42.6-7.1-8.4-2-17-2.9-25.5-3.9-9.8-1.1-19.4-.4-29 .4-24.9 2.1-48.3 8.2-67.6 25.5-13.8 12.3-22 27.4-24.9 45.7-1.6 10-1.6 19.9 1.1 29.7 1.9 6.8 5.3 13 11.4 16.7 9.8 5.8 27.6 2.4 30.7-13.8 1.3-7-.5-14.4 2.7-21.2.5-1 .7-2.4 1.8-2.6 1.6-.2 2.1 1.2 2.5 2.5 5.5 19.2 1.2 36.9-21.7 41.2-15.9 2.9-29.2-5.4-34-21-8.3-27.1-3.2-51.9 14.3-74.1 17-21.6 40.4-32.2 66.1-38.6 9.6-2.4 19.5-3.2 29.4-4.3 12.1-1.4 24.1-.3 36 .5 11.6.8 23.1 3.9 34.8 4.6 15.1.9 30.2 2.1 45.5.5 12.5-1.3 24.7-3.4 36.5-7.3 18-6 34.3-15.4 49-27.5 6-5 11.4-10.6 16.8-16.1 2.3-2.3 3.6-2.5 5.8 0 10.9 12.5 23.2 23.4 37.2 32.3 16 10.2 33.4 16.7 52.1 20.6 19.7 4.1 39.5 3.3 59.2 2.5 17.8-.7 35.6-4.3 53.5-3.6 27.9 1.1 55.6 4.5 81.2 17 15.9 7.8 29.2 18.9 37.2 35 3.8 7.6 5.8 15.9 6.9 24.5 1.5 11.8-.1 22.9-4.2 33.9-4.8 12.6-15.1 19.5-27.5 20.5-12.3 1-22.9-9.1-24.7-21.2-1.1-7.3-.1-14.2 1.2-21.2.7-1.9 1.4-3.4 2.8-4.6zM335.5 418.1c-10-10.7-21.3-20.7-33.9-29.1-17.5-11.6-36.6-19.2-57.4-22.6-11.5-1.9-23.1-3.4-34.7-2.8-13.4.7-26.7 1.4-40 3.6-18.2 3.1-36.7 4.4-55.2 3-22.2-1.6-43.7-6.4-63.6-16.9-18.3-9.7-33.1-23-42.4-41.7-8.7-17.6-10.4-36.4-5.5-55.1 4.1-15.7 15.5-25.3 30.1-25 12.3.3 24.8 6.9 27.7 19.6 1.9 8.4 2.4 17.1-2.2 25.4-4.4-3.4-4.7-8-4.8-12.5-.2-5.9-.6-11.4-2.7-17.2-3.8-10.1-20.2-14.3-29.3-8-7.2 4.9-10.5 12.3-11.8 20.3-4.7 28.2 3.6 52.3 24.7 71.4 12.8 11.5 28.4 18.1 45.1 21.8 17 3.8 34.2 4.9 51.4 3.8 13.7-.9 27.1-4.2 40.5-7.3 8.4-1.9 17-2.8 25.6-3.7 12.4-1.3 24.9-1.2 37.3-.7 21.9.8 43.5 4 63.6 13.7 8.7 4.2 16.8 9.6 24.1 16.1 2.1 1.8 4.4 3.5 6.3 5.4 6.1 6 6 6 12.9.5 18.2-14.5 38.1-25.8 60.5-32.3 12.3-3.6 24.9-5.7 37.8-6.7 8.6-.7 17.2-.5 25.8-.8 16.3-.4 32.4 1.6 48.5 4 17.1 2.5 34.3 2.7 51.5 1.9 18.5-.9 37-2.2 54.9-7.8 10-3.1 19.3-7.8 26.7-15.1 8.4-8.3 13.3-18.8 14.9-30.8.7-5.1.8-10.2.9-15.3.2-11-2.2-21.2-9-30-6.1-7.8-18.3-13.4-27.5-8-6.4 3.8-8.1 10.3-8.3 17-.2 6.9-.8 13.7-2.1 20.5-.3 1.5-.9 2.4-2.4 2.6-1.5.2-1.6-.9-1.9-1.8-3.6-9.5-4.1-26.8 3.3-35.7 7.6-9.2 22.3-11.4 34.4-3.6 10.6 6.8 14.5 17.4 16.5 29 2.3 13.1.7 25.9-4 38.3-4.4 11.6-11.8 20.9-21.4 29-16.5 13.9-36.2 20-56.5 24.5-9 2-18.4 2.8-27.7 3.5-9.4.8-18.9.8-28.3.7-14.9-.2-29.7-2.9-44.5-3.7-11.8-.6-23.8-.7-35.8.5-11.9 1.2-23.5 2.9-34.9 6.2-20.4 6-38.5 16.1-54.7 30-7.9 6.9-14.7 14.5-22.5 21.9z"/><path d="M333.3 227.3c-13.8.9-14.1.5-16.9-14.3-1.8-9.5-4.4-18.8-6.3-28.3-.9-4.6-4.2-3-6.8-3.1-3.3 0-1.8 2.6-1.8 4.1-.1 12.1-.4 24.2 1 36.2.5 4.3-.9 6.4-5.4 5.7-1-.2-2-.1-3 0-4.3.6-5.7-1-5.7-5.5.2-29.8.2-59.6 0-89.4 0-3.9.9-5.5 5-5.1 6.7.7 13.4 0 20.2.8 11 1.3 16.4 7.9 18.4 17.6 2 9.9 1.7 19.9-5.5 28.3-.2.2-.1.8-.3.9-5.5 2.1-3.9 6-2.9 10.2 3.6 13.7 6.7 27.7 10 41.9zm-31.8-72.8v12c0 1-.6 2.3.9 3 2.9 1.4 11.9-.8 13.8-3.2 3.3-4.1 3.3-19.4 0-23.5-1.9-2.4-9.5-4.7-13.2-3.1-3.3 1.3-1.1 4.6-1.4 6.9-.4 2.6-.1 5.3-.1 7.9zM417.5 177.3c0-15.3.1-30.7-.1-46 0-3 .6-4 3.8-3.9 8.2.3 16.4-.3 24.4 2 7.7 2.2 11.3 7.7 12.8 14.9 3 14.2 3.7 28.7 2.9 43.2-.4 8.1-1.2 16.3-3.1 24.2-2.9 11.9-10 14.6-21 15.8-5.3.5-10.7-.1-16 .2-3.1.2-3.9-.7-3.8-3.8.2-15.6.1-31.1.1-46.6zm13 .2c0 11.5 0 23 .1 34.4 0 1.2-1 2.9 1.4 3.6 5.8 1.6 10.3-1.2 12.7-6.8 2.1-4.8 1.7-9.8 2.5-14.7 1-6.5 1.8-13.2 1.1-19.6-.7-6.5-.9-13-1.7-19.5-1.2-10.4-3.4-14-11.2-15.3-2.8-.5-5.2-.6-5 4 .4 11.3.1 22.6.1 33.9zM201.5 177.5c0 15.3-.1 30.6.1 46 0 3.2-.8 4.5-4.1 4.1-1.5-.2-3-.2-4.5 0-3.5.4-4.6-1.1-4.6-4.6.2-13.2-.1-26.3.1-39.5 0-3.3-.8-4.3-4.1-4.1-4.1.3-9.7-1.4-12 .7-2.8 2.4-.8 8.1-.9 12.4-.1 10.5-.1 21 0 31.5 0 2.8-.7 3.6-3.6 3.6-11.1-.3-9.5 1.1-9.5-9.1-.1-28.3.1-56.6-.1-84.9 0-4.8 1.3-6.8 6.1-6 1.1.2 2.3.2 3.5 0 2.9-.4 3.6.8 3.5 3.6-.2 11 0 22-.1 33 0 2.8.8 3.7 3.6 3.5 4.3-.3 9.9 1.4 12.6-.7 2.8-2.2.8-8.1.9-12.3.1-7.5.2-15 0-22.5-.1-3.5 1.1-4.6 4.6-4.6 8.5.1 8.5-.1 8.5 8.1v41.8zM266.5 168.5c0 12.3.3 24.7-.1 37-.3 7.7-2.3 15-9.7 19.4-13.2 8-30.8.7-32.2-16.1-2.2-25.7-.4-51.5-1-77.2-.1-3 .9-4.1 4-4.2 9.1-.2 9-.3 9 8.5 0 21.7 0 43.3.1 65 0 3.1.2 6.3 1.3 9.1 1.7 4.6 6 5.2 10.2 4.4 4.2-.8 5.4-4.2 5.5-7.9.1-12.5 0-25 0-37.5 0-12.2.1-24.3-.1-36.5-.1-4 1.1-5.2 5.1-5.1 8 .2 8 0 8 8.1-.1 11-.1 22-.1 33zM520.5 227.5c-7.3 0-7.3 0-9-9.5-.9-5.2-2.1-10.5-3-15.7-.2-1.2-.4-1.8-1.7-1.8-3.8 0-7.7.1-11.5 0-1.6 0-1.6.8-1.9 2.1-1.5 7.4-3.4 14.8-4.9 22.2-.4 2.1-1.4 2.6-3.3 2.8-11.3 1-11.2 1-8.8-10.2 5.1-24.1 10-48.3 15.1-72.4 1-4.7 2.3-9.4 3-14.2.3-2 1.3-3.3 3.9-3.3 7.4-.1 7.3-.2 9.1 7.3 6 25.4 11.1 51.1 16.1 76.7.6 3.2 1.5 6.3 2.1 9.5 1.2 6.6 1.4 6.5-5.2 6.5zM501 165.9c-1.1 5.6-2.3 11.3-3.4 16.9-.5 2.4 0 3.7 3.2 3.9 4.8.3 4.1-2.7 3.7-5.3-1-5.2-2.4-10.3-3.5-15.5zM359.8 203.5c3.3.2 6.9-1.4 7.2 4.7.3 5 4.8 7.2 9.8 6.2 4.8-.9 5.4-4.8 5.7-8.8.6-8.6-3.2-15.5-8.8-21.4-6.5-6.9-13.1-13.8-17-22.5-4.1-9-5.1-18.2.8-27.2 2.7-4.1 6.9-5.6 11.2-6.8 13.4-3.7 27.3 6.2 27.8 19.8 0 1.2-.3 1.9-1.6 1.8-3.2 0-6.3-.1-9.5 0-2.1.1-1.5-1.6-2.1-2.5-1.7-2.7-1.9-6.6-6.8-6.6-9.1 0-11.7 3.7-9.2 12.7 2 7.1 6.7 12.2 11.5 17.2 7.8 8.1 15.2 16.5 17.1 28.1 1.6 9.4.6 18-7.3 24.4-7.2 5.8-15.5 6.2-23.5 3.3-6.6-2.4-10.2-8.4-11.5-15.3-1.5-7-1.3-7.1 6.2-7.1zM534.2 127.9c.9-.2 1.2-.4 1.6-.4 12.3-.5 12.3-.5 16.3 11.1 2.9 8.5 5.9 16.9 9.1 26.1 3.9-10.7 7.6-21 11.3-31.3.7-2 .2-5.3 2.8-5.7 3.9-.6 7.9-.2 11.9 0 .9.1.9 1.1.5 2.3-5.8 15.4-11.4 30.9-17.2 46.3-1.2 3.2-2.1 6.4-2 9.9.1 12.1-.1 24.3.1 36.4.1 3.8-1.2 4.9-4.9 4.8-10.5-.3-9.1 1.1-9.2-8.9 0-7.7-.6-15.4.1-23 .9-10-2.1-18.9-5.5-27.9-4.8-13-9.8-26.1-14.9-39.7zM112.5 183.1c0-13.3-.1-26.7.1-40 0-2.7-.5-4.1-3.5-3.6-1 .2-2 0-3 0-9 0-8.9 0-8.6-8.9.1-2.3.5-3.2 3-3.1 11.7.1 23.3.1 35 0 3 0 4.4.9 4.1 4-.1 1.7-.2 3.3 0 5 .3 2.4-.6 3.1-3 3.1-3.6 0-8.5-1.7-10.4.8-1.8 2.3-.6 7-.6 10.6 0 23.8-.1 47.6.1 71.5 0 4.1-.8 5.4-5.1 5.2-8-.4-8-.1-8-8.1-.1-12.2-.1-24.3-.1-36.5zM485.6 277.5c21.9 1.8 43.9.1 65.7 1.2 11.3.6 22.5.3 33.8.8 1.2.1 3.4-1 3.3 1.5-.1 2.5-2.3 1.4-3.5 1.3-12.6-.2-25.2.9-37.8 1.3-17.3.5-34.7 1.4-52 2-6.1.2-12.2.3-18.3.9-4.4.4-3.3-2.4-3.4-4.7-.1-2.6-.5-5.1 3.6-4.5 2.9.5 5.8.2 8.6.2zM104.3 279.5c23.4-1.5 46.8-.5 70.2-1.3 7.9-.2 15.9-.3 23.8-.8 4.5-.3 3.1 2.6 3.2 4.8.1 2.2.7 4.4-3.2 4.4-13.3-.1-26.5-1.2-39.7-1.4-5.5-.1-11.2-.4-16.8-.7-11.2-.6-22.5-.7-33.7-1.3-6.2-.3-12.5-.5-18.8-.8-1 0-2.7.7-2.6-1.2.1-1.2 1.2-1.8 2.6-1.8 5 .2 10 .1 15 .1zM222.5 281.9c0-4.7.1-9.3 0-14-.1-2.4.3-3.6 3.2-3.4 3.6.3 7.3 0 11 .1 7 .2 11.3 7.8 7.5 13.6-1.2 1.8-.8 2.3.1 3.8 3.7 6.1 3 12.2-1.5 15.8-3 2.4-6.6 1.6-9.9 1.7-10.3.1-10.3 0-10.3-10.2-.1-2.5-.1-4.9-.1-7.4zm6 6.8c.2 3.1-1.1 6.5 3.8 5.9 3.4-.4 7.1.2 7.3-4.9.1-4.7-2.7-5-6.4-5.2-4-.3-5.6.9-4.7 4.2zm4.7-10.3c3 .4 5.6.4 5.4-4-.2-4.5-2.8-4.7-6.2-5-4.2-.4-3.7 2-3.9 4.7-.5 4 1.1 5.1 4.7 4.3zM294.6 282.6c-.2-2.9.3-5.4.9-8 1.4-5.6 4.8-9.6 9.1-10 9-.9 12 .6 15 7.6 3.7 8.6 2.3 20.1-3.6 25.3-6.4 5.6-16.2 3.2-19.4-4.3-1.5-3.5-2.8-7-2-10.6zm19.9-.5v-5c-.1-4.2-2.5-6.7-6.3-7.5-2.9-.6-6 3.4-6.7 7.1-.7 3.7-.4 7.3.2 10.9.6 3.5 1.8 7 6.5 6.9 4.7 0 5.6-3.6 6.4-7 .2-1.7-.1-3.6-.1-5.4zM439.5 281.9c-.1 3.7.1 7.4-1.7 10.9-2.7 5.3-6.7 8.1-12.1 7.7-5.8-.4-9.2-3.4-11.3-8.9-2.2-5.8-2.2-11.7-.7-17.6 2-7.7 6.1-10.2 15.5-9.5 5 .4 9.9 6.2 10.3 12.4.1 1.7 0 3.3 0 5zm-6.1 0c.8-2.9-.8-5.4-1.3-8.1-.5-2.5-2.6-4.1-5.2-4.3-2.8-.2-5.4 1.2-6.3 3.8-2 5.6-1.9 11.5 0 17.2.7 2.2 2.5 4.2 5.5 4 3.2-.1 5.5-1.6 6-4.6.6-2.5 2.1-5.1 1.3-8zM257.4 283.4c.2-4.4-.1-7.3 1-10.2 2.4-6.6 5.9-8.9 14-8.6 5.2.2 9.8 4.1 11 9.8 1.3 6.1 1 12.2-.9 18.1-1.5 4.7-6.2 8.1-11.6 8-4.9-.1-9.1-1.6-11.4-6.7-1.7-3.9-2.3-7.8-2.1-10.4zm20.1-1.2c0-1.7.4-3.4-.1-5-1-3.4-2-7.2-6.3-7.6-4.1-.3-5.8 2.3-6.8 6.1-1.4 5.1-1.1 9.9.7 14.8 1 2.8 3.2 3.9 6 4 3 .1 4.3-2 5.5-4.2 1.3-2.5 1-5.4 1-8.1zM377.5 282.3c.7-8.8 3.6-17.1 12.5-18.1 4.1-.5 9.5 1.8 11.1 5.3.4.8.7 1.7-.4 1.9-1.6.2-2.4 2.5-4.6 1.2-6.1-3.8-10.1-2.5-11.2 4.4-.9 5.3-1.7 11.2 3.3 15.6 2.7 2.4 5.8 2.3 7.2-.8 1.9-4.1 4.4-1.5 5.9-.8 2.8 1.4.5 3.4-.5 4.7-2.8 3.9-6.9 5.7-11.6 4.6-5.7-1.4-8.8-5.8-10.5-11.1-.9-2.3-.9-4.8-1.2-6.9zM340.5 284.5v-7c0-2.5.7-5.4-.4-7.3-1.1-1.9-4.3-.6-6.5-.7-1.9 0-2.1-.9-2.1-2.4-.1-1.8.3-2.7 2.4-2.7 6.5.1 12.9.1 19.4 0 2.3 0 2.2 1.2 2.3 2.8.1 1.7-.6 2.1-2.3 2.3-6.8.7-6.8.7-6.8 7.6 0 6.5-.1 13 .1 19.4.1 2.5-.9 2.9-3.1 3-2.5 0-3.1-.8-3-3.1.1-3.9 0-7.9 0-11.9zM455.5 294.3c0 4.2-2.4 5.7-4.9 5.7-2.3 0-4.6-1-4.2-4.5.3-3.2 1.4-4.9 4.7-4.9 3.2-.1 4.4 1.7 4.4 3.7z"/></svg>